<mxfile host="65bd71144e">
    <diagram id="AMR_kuXUxh00wSzZg8DA" name="Page-1">
        <mxGraphModel dx="2134" dy="2979" grid="1" gridSize="10" guides="1" tooltips="1" connect="1" arrows="1" fold="1" page="1" pageScale="1" pageWidth="850" pageHeight="1100" math="0" shadow="0">
            <root>
                <mxCell id="0"/>
                <mxCell id="1" parent="0"/>
                <mxCell id="2" value="&lt;div&gt;RulesPage&lt;/div&gt;" style="rounded=1;whiteSpace=wrap;html=1;shadow=1;" parent="1" vertex="1">
                    <mxGeometry x="90" y="-1540" width="120" height="60" as="geometry"/>
                </mxCell>
                <mxCell id="3" value="HomePage" style="rounded=1;whiteSpace=wrap;html=1;shadow=1;" parent="1" vertex="1">
                    <mxGeometry x="-120" y="-1540" width="120" height="60" as="geometry"/>
                </mxCell>
                <mxCell id="4" value="StoryPage" style="rounded=1;whiteSpace=wrap;html=1;shadow=1;" parent="1" vertex="1">
                    <mxGeometry x="260" y="-1540" width="120" height="60" as="geometry"/>
                </mxCell>
                <mxCell id="111" style="edgeStyle=none;html=1;exitX=1;exitY=0.5;exitDx=0;exitDy=0;" edge="1" parent="1" source="5" target="104">
                    <mxGeometry relative="1" as="geometry"/>
                </mxCell>
                <mxCell id="5" value="&lt;div&gt;APP&lt;/div&gt;" style="rounded=1;whiteSpace=wrap;html=1;shadow=1;" parent="1" vertex="1">
                    <mxGeometry x="305" y="-1820" width="120" height="60" as="geometry"/>
                </mxCell>
                <mxCell id="56" style="edgeStyle=none;html=1;exitX=0.5;exitY=1;exitDx=0;exitDy=0;entryX=0.25;entryY=0;entryDx=0;entryDy=0;" parent="1" source="6" target="53" edge="1">
                    <mxGeometry relative="1" as="geometry"/>
                </mxCell>
                <mxCell id="6" value="GamePage&lt;div&gt;&lt;font color=&quot;#000000&quot;&gt;Usestate: EnergyValue&lt;br&gt;&lt;/font&gt;&lt;div&gt;funkce: HandleEnergyValue (Switch, DeductionEnergy)&lt;/div&gt;&lt;div&gt;&lt;span style=&quot;font-family: monospace; font-size: 0px; text-align: start; text-wrap-mode: nowrap;&quot;&gt;%3CmxGraphModel%3E%3Croot%3E%3CmxCell%20id%3D%220%22%2F%3E%3CmxCell%20id%3D%221%22%20parent%3D%220%22%2F%3E%3CmxCell%20id%3D%222%22%20value%3D%22HomeButton%22%20style%3D%22rounded%3D1%3BwhiteSpace%3Dwrap%3Bhtml%3D1%3B%22%20vertex%3D%221%22%20parent%3D%221%22%3E%3CmxGeometry%20x%3D%22530%22%20y%3D%22-1220%22%20width%3D%2280%22%20height%3D%2240%22%20as%3D%22geometry%22%2F%3E%3C%2FmxCell%3E%3C%2Froot%3E%3C%2FmxGraphModel%3EEnag&lt;/span&gt;&lt;span style=&quot;font-family: monospace; font-size: 0px; text-align: start; text-wrap-mode: nowrap; background-color: transparent;&quot;&gt;%3CmxGraphModel%3E%3Croot%3E%3CmxCell%20id%3D%220%22%2F%3E%3CmxCell%20id%3D%221%22%20parent%3D%220%22%2F%3E%3CmxCell%20id%3D%222%22%20value%3D%22HomeButton%22%20style%3D%22rounded%3D1%3BwhiteSpace%3Dwrap%3Bhtml%3D1%3B%22%20vertex%3D%221%22%20parent%3D%221%22%3E%3CmxGeometry%20x%3D%22530%22%20y%3D%22-1220%22%20width%3D%2280%22%20height%3D%2240%22%20as%3D%22geometry%22%2F%3E%3C%2FmxCell%3E%3C%2Froot%3E%3C%2FmxGraphModel%3E&lt;/span&gt;&lt;/div&gt;&lt;/div&gt;" style="rounded=1;whiteSpace=wrap;html=1;shadow=1;" parent="1" vertex="1">
                    <mxGeometry x="600" y="-1560" width="230" height="90" as="geometry"/>
                </mxCell>
                <mxCell id="73" style="edgeStyle=none;html=1;exitX=0.977;exitY=0.389;exitDx=0;exitDy=0;exitPerimeter=0;" parent="1" source="53" target="74" edge="1">
                    <mxGeometry relative="1" as="geometry">
                        <mxPoint x="1340" y="-1480" as="targetPoint"/>
                        <mxPoint x="1375.4" y="-1259.94" as="sourcePoint"/>
                    </mxGeometry>
                </mxCell>
                <mxCell id="9" value="&lt;span style=&quot;color: rgb(0, 0, 0);&quot;&gt;SoundSwitch&lt;/span&gt;" style="rounded=1;whiteSpace=wrap;html=1;" parent="1" vertex="1">
                    <mxGeometry x="550" y="-1870" width="80" height="40" as="geometry"/>
                </mxCell>
                <mxCell id="12" style="edgeStyle=none;html=1;exitX=0.25;exitY=1;exitDx=0;exitDy=0;entryX=0.65;entryY=-0.017;entryDx=0;entryDy=0;entryPerimeter=0;" parent="1" source="5" target="3" edge="1">
                    <mxGeometry relative="1" as="geometry"/>
                </mxCell>
                <mxCell id="13" style="edgeStyle=none;html=1;exitX=0.5;exitY=1;exitDx=0;exitDy=0;entryX=0.7;entryY=-0.017;entryDx=0;entryDy=0;entryPerimeter=0;" parent="1" source="5" target="2" edge="1">
                    <mxGeometry relative="1" as="geometry"/>
                </mxCell>
                <mxCell id="14" style="edgeStyle=none;html=1;exitX=0.75;exitY=1;exitDx=0;exitDy=0;entryX=0.6;entryY=-0.017;entryDx=0;entryDy=0;entryPerimeter=0;" parent="1" source="5" target="4" edge="1">
                    <mxGeometry relative="1" as="geometry"/>
                </mxCell>
                <mxCell id="15" style="edgeStyle=none;html=1;exitX=1;exitY=1;exitDx=0;exitDy=0;entryX=0.183;entryY=0.017;entryDx=0;entryDy=0;entryPerimeter=0;" parent="1" source="5" target="6" edge="1">
                    <mxGeometry relative="1" as="geometry"/>
                </mxCell>
                <mxCell id="42" value="EnergyBar&lt;div&gt;props:&lt;span style=&quot;color: rgb(63, 63, 63); background-color: transparent;&quot;&gt;EnergyValue&lt;/span&gt;&lt;/div&gt;" style="rounded=1;whiteSpace=wrap;html=1;" parent="1" vertex="1">
                    <mxGeometry x="460" y="-1450" width="120" height="60" as="geometry"/>
                </mxCell>
                <mxCell id="44" style="edgeStyle=none;html=1;exitX=0;exitY=0.75;exitDx=0;exitDy=0;entryX=0.65;entryY=0.05;entryDx=0;entryDy=0;entryPerimeter=0;" parent="1" source="6" target="42" edge="1">
                    <mxGeometry relative="1" as="geometry">
                        <mxPoint x="457.5" y="-1360" as="sourcePoint"/>
                    </mxGeometry>
                </mxCell>
                <mxCell id="50" value="&lt;br&gt;GameMap&lt;div&gt;&lt;font color=&quot;#000000&quot;&gt;pros: Position&lt;br&gt;&lt;/font&gt;callback onClick:&lt;/div&gt;" style="rounded=1;whiteSpace=wrap;html=1;" parent="1" vertex="1">
                    <mxGeometry x="570" y="-1320" width="140" height="65" as="geometry"/>
                </mxCell>
                <mxCell id="51" style="edgeStyle=none;html=1;exitX=0.25;exitY=1;exitDx=0;exitDy=0;" parent="1" source="53" target="50" edge="1">
                    <mxGeometry relative="1" as="geometry">
                        <mxPoint x="740" y="-1470" as="sourcePoint"/>
                        <mxPoint x="740" y="-1460" as="targetPoint"/>
                    </mxGeometry>
                </mxCell>
                <mxCell id="53" value="GameContainer&lt;div&gt;UseState: Position&lt;/div&gt;&lt;div&gt;pops: Position&lt;/div&gt;&lt;div&gt;Funkce: Přepínáč&lt;/div&gt;&lt;div&gt;&lt;span style=&quot;color: rgb(63, 63, 63); font-size: 10px;&quot;&gt;Callback:&amp;nbsp;&lt;/span&gt;&lt;span style=&quot;color: rgb(63, 63, 63); background-color: transparent;&quot;&gt;deductionEnergy&lt;/span&gt;&lt;/div&gt;" style="rounded=1;whiteSpace=wrap;html=1;" parent="1" vertex="1">
                    <mxGeometry x="740" y="-1440" width="200" height="80" as="geometry"/>
                </mxCell>
                <mxCell id="57" value="GameLevel&lt;div&gt;&lt;font style=&quot;font-size: 10px;&quot;&gt;UseSate:&amp;nbsp;&lt;span style=&quot;color: rgb(63, 63, 63); background-color: transparent;&quot;&gt;ResultTarget&lt;/span&gt;&lt;/font&gt;&lt;/div&gt;&lt;div&gt;&lt;font style=&quot;font-size: 10px;&quot;&gt;&lt;span style=&quot;color: rgb(63, 63, 63); background-color: transparent;&quot;&gt;UseState:BlockerTarget&lt;/span&gt;&lt;/font&gt;&lt;/div&gt;&lt;div&gt;&lt;font style=&quot;font-size: 10px;&quot;&gt;&lt;span style=&quot;color: rgb(63, 63, 63); background-color: transparent;&quot;&gt;Funkce: HandleBlockerTarget (odčítá výsledek od Blockeru)&lt;/span&gt;&lt;/font&gt;&lt;/div&gt;&lt;div&gt;&lt;span style=&quot;color: rgb(63, 63, 63); background-color: transparent;&quot;&gt;&lt;font style=&quot;font-size: 10px;&quot;&gt;props:&amp;nbsp;&lt;/font&gt;&lt;/span&gt;&lt;span style=&quot;color: rgb(63, 63, 63); font-size: 10px; background-color: transparent;&quot;&gt;BlockerTarget&lt;/span&gt;&lt;/div&gt;&lt;div&gt;&lt;span style=&quot;color: rgb(63, 63, 63); background-color: transparent;&quot;&gt;&lt;font style=&quot;font-size: 10px;&quot;&gt;Callback:&amp;nbsp;&lt;/font&gt;&lt;/span&gt;&lt;span style=&quot;color: rgb(63, 63, 63); background-color: transparent;&quot;&gt;deductionEnergy (ResultTarget)&lt;/span&gt;&lt;/div&gt;" style="rounded=1;whiteSpace=wrap;html=1;" parent="1" vertex="1">
                    <mxGeometry x="780" y="-1320" width="230" height="140" as="geometry"/>
                </mxCell>
                <mxCell id="58" style="edgeStyle=none;html=1;exitX=0.75;exitY=1;exitDx=0;exitDy=0;entryX=0.433;entryY=0;entryDx=0;entryDy=0;entryPerimeter=0;" parent="1" source="53" target="57" edge="1">
                    <mxGeometry relative="1" as="geometry"/>
                </mxCell>
                <mxCell id="62" value="GameBlocker&lt;div&gt;props:&amp;nbsp;&lt;span style=&quot;color: rgb(63, 63, 63); font-size: 10px; background-color: transparent;&quot;&gt;BlockerTarget&lt;/span&gt;&lt;/div&gt;" style="rounded=1;whiteSpace=wrap;html=1;" parent="1" vertex="1">
                    <mxGeometry x="940" y="-1100" width="120" height="60" as="geometry"/>
                </mxCell>
                <mxCell id="63" style="edgeStyle=none;html=1;exitX=0.75;exitY=1;exitDx=0;exitDy=0;entryX=0.567;entryY=0.05;entryDx=0;entryDy=0;entryPerimeter=0;" parent="1" source="57" target="62" edge="1">
                    <mxGeometry relative="1" as="geometry"/>
                </mxCell>
                <mxCell id="64" value="GameShuffler&lt;div&gt;&lt;font style=&quot;font-size: 10px;&quot;&gt;callback: ResultTarget&lt;/font&gt;&lt;/div&gt;&lt;div&gt;&lt;span style=&quot;font-size: 10px; background-color: transparent;&quot;&gt;(fukce : zneaktivnění tlačítka)&amp;nbsp;&lt;/span&gt;&lt;/div&gt;" style="rounded=1;whiteSpace=wrap;html=1;" parent="1" vertex="1">
                    <mxGeometry x="600" y="-1100" width="160" height="60" as="geometry"/>
                </mxCell>
                <mxCell id="65" value="&lt;br&gt;&lt;span style=&quot;color: rgb(0, 0, 0); font-family: Helvetica; font-size: 12px; font-style: normal; font-variant-ligatures: normal; font-variant-caps: normal; font-weight: 400; letter-spacing: normal; orphans: 2; text-align: center; text-indent: 0px; text-transform: none; widows: 2; word-spacing: 0px; -webkit-text-stroke-width: 0px; white-space: normal; background-color: rgb(251, 251, 251); text-decoration-thickness: initial; text-decoration-style: initial; text-decoration-color: initial; float: none; display: inline !important;&quot;&gt;GameShullerResult&lt;/span&gt;&lt;br&gt;&lt;font style=&quot;font-size: 10px;&quot;&gt;props:&amp;nbsp;&lt;/font&gt;&lt;span style=&quot;color: rgb(63, 63, 63); font-size: 10px;&quot;&gt;ResultTarget&lt;/span&gt;" style="rounded=1;whiteSpace=wrap;html=1;" parent="1" vertex="1">
                    <mxGeometry x="790" y="-1100" width="120" height="60" as="geometry"/>
                </mxCell>
                <mxCell id="88" style="edgeStyle=none;html=1;exitX=0.25;exitY=1;exitDx=0;exitDy=0;entryX=0.5;entryY=0;entryDx=0;entryDy=0;" parent="1" source="71" target="85" edge="1">
                    <mxGeometry relative="1" as="geometry"/>
                </mxCell>
                <mxCell id="71" value="HappyEnd" style="rounded=1;whiteSpace=wrap;html=1;" parent="1" vertex="1">
                    <mxGeometry x="1050" y="-1317.5" width="120" height="60" as="geometry"/>
                </mxCell>
                <mxCell id="72" style="edgeStyle=none;html=1;entryX=0.358;entryY=0.017;entryDx=0;entryDy=0;entryPerimeter=0;" parent="1" source="53" target="71" edge="1">
                    <mxGeometry relative="1" as="geometry">
                        <mxPoint x="1321.4000000000005" y="-1261.44" as="sourcePoint"/>
                        <Array as="points"/>
                    </mxGeometry>
                </mxCell>
                <mxCell id="74" value="BadEnd" style="rounded=1;whiteSpace=wrap;html=1;" parent="1" vertex="1">
                    <mxGeometry x="1240" y="-1320" width="120" height="60" as="geometry"/>
                </mxCell>
                <mxCell id="75" value="GameText&lt;div&gt;props:BlockerTarget&lt;/div&gt;" style="rounded=1;whiteSpace=wrap;html=1;" parent="1" vertex="1">
                    <mxGeometry x="1080" y="-1100" width="120" height="60" as="geometry"/>
                </mxCell>
                <mxCell id="77" style="edgeStyle=none;html=1;exitX=0.953;exitY=0.969;exitDx=0;exitDy=0;entryX=0.383;entryY=0.033;entryDx=0;entryDy=0;entryPerimeter=0;exitPerimeter=0;" parent="1" source="57" target="75" edge="1">
                    <mxGeometry relative="1" as="geometry"/>
                </mxCell>
                <mxCell id="79" value="BadEndText" style="rounded=1;whiteSpace=wrap;html=1;" parent="1" vertex="1">
                    <mxGeometry x="1310" y="-1230" width="120" height="60" as="geometry"/>
                </mxCell>
                <mxCell id="81" style="edgeStyle=none;html=1;exitX=0.25;exitY=1;exitDx=0;exitDy=0;entryX=0.442;entryY=-0.017;entryDx=0;entryDy=0;entryPerimeter=0;" parent="1" source="74" target="79" edge="1">
                    <mxGeometry relative="1" as="geometry"/>
                </mxCell>
                <mxCell id="85" value="HappyEndText" style="rounded=1;whiteSpace=wrap;html=1;" parent="1" vertex="1">
                    <mxGeometry x="1040" y="-1230" width="120" height="60" as="geometry"/>
                </mxCell>
                <mxCell id="104" value="HomeButton" style="rounded=1;whiteSpace=wrap;html=1;" parent="1" vertex="1">
                    <mxGeometry x="550" y="-1820" width="80" height="40" as="geometry"/>
                </mxCell>
                <mxCell id="109" style="edgeStyle=none;html=1;exitX=0.032;exitY=0.931;exitDx=0;exitDy=0;entryX=0.593;entryY=0.061;entryDx=0;entryDy=0;entryPerimeter=0;exitPerimeter=0;" parent="1" source="57" target="64" edge="1">
                    <mxGeometry relative="1" as="geometry"/>
                </mxCell>
                <mxCell id="110" style="edgeStyle=none;html=1;exitX=0.5;exitY=1;exitDx=0;exitDy=0;entryX=0.686;entryY=-0.026;entryDx=0;entryDy=0;entryPerimeter=0;" parent="1" source="57" target="65" edge="1">
                    <mxGeometry relative="1" as="geometry"/>
                </mxCell>
                <mxCell id="112" style="edgeStyle=none;html=1;exitX=1;exitY=0;exitDx=0;exitDy=0;entryX=0.088;entryY=0.325;entryDx=0;entryDy=0;entryPerimeter=0;" edge="1" parent="1">
                    <mxGeometry relative="1" as="geometry">
                        <mxPoint x="423" y="-1820" as="sourcePoint"/>
                        <mxPoint x="555.04" y="-1857" as="targetPoint"/>
                    </mxGeometry>
                </mxCell>
            </root>
        </mxGraphModel>
    </diagram>
</mxfile>
